<svg xmlns="http://www.w3.org/2000/svg" xmlns:xlink="http://www.w3.org/1999/xlink" width="500" zoomAndPan="magnify" viewBox="0 0 375 374.999991" height="500" preserveAspectRatio="xMidYMid meet" version="1.0"><defs><g/><clipPath id="668bb92ada"><path d="M 108 217 L 273.136719 217 L 273.136719 276 L 108 276 Z M 108 217 " clip-rule="nonzero"/></clipPath></defs><path fill="#182b5c" d="M 195.675781 290.34375 C 198.628906 289.46875 201.503906 288.457031 204.304688 287.332031 C 155.875 296.914062 107.222656 268.214844 92.886719 219.945312 C 78.550781 171.671875 103.65625 121.070312 149.464844 102.667969 C 146.503906 103.253906 143.542969 103.976562 140.59375 104.851562 C 89.371094 120.0625 60.175781 173.917969 75.386719 225.140625 C 90.597656 276.363281 144.453125 305.554688 195.675781 290.34375 " fill-opacity="1" fill-rule="nonzero"/><path fill="#289db9" d="M 75.800781 265.789062 C 78.371094 267.800781 81.007812 269.667969 83.695312 271.398438 C 45.710938 235.417969 40.675781 175.761719 73.605469 133.765625 C 106.535156 91.765625 165.667969 82.425781 209.671875 110.734375 C 207.347656 108.535156 204.914062 106.417969 202.34375 104.40625 C 157.78125 69.460938 93.324219 77.261719 58.378906 121.824219 C 23.4375 166.390625 31.238281 230.84375 75.800781 265.789062 " fill-opacity="1" fill-rule="nonzero"/><g clip-path="url(#668bb92ada)"><path fill="#289db9" d="M 171.15625 261.105469 C 144.726562 254 122.988281 238.15625 108.207031 217.519531 C 119.859375 243.253906 142.515625 263.757812 171.921875 271.664062 C 210.339844 281.992188 249.5625 267.933594 273.164062 238.96875 C 245.71875 261.585938 208.113281 271.039062 171.15625 261.105469 " fill-opacity="1" fill-rule="nonzero"/></g><g fill="#182b5c" fill-opacity="1"><g transform="translate(93.035031, 206.999986)"><g><path d="M 0.609375 0 L 7.921875 -42.078125 L 20 -42.046875 C 22.832031 -41.992188 25.378906 -41.351562 27.640625 -40.125 C 29.898438 -38.90625 31.734375 -37.148438 33.140625 -34.859375 C 34.554688 -32.566406 35.40625 -29.984375 35.6875 -27.109375 C 35.84375 -25.429688 35.828125 -23.71875 35.640625 -21.96875 L 35.4375 -20.4375 C 34.582031 -14.269531 32.15625 -9.320312 28.15625 -5.59375 C 24.164062 -1.863281 19.316406 0 13.609375 0 Z M 15.171875 -35.0625 L 10.28125 -6.96875 L 13.8125 -6.9375 C 17.707031 -6.9375 20.832031 -8.359375 23.1875 -11.203125 C 25.550781 -14.054688 26.90625 -18.363281 27.25 -24.125 L 27.3125 -25.0625 C 27.363281 -28.238281 26.753906 -30.671875 25.484375 -32.359375 C 24.210938 -34.054688 22.316406 -34.945312 19.796875 -35.03125 Z M 15.171875 -35.0625 "/></g></g></g><g fill="#182b5c" fill-opacity="1"><g transform="translate(127.847063, 206.999986)"><g><path d="M 28.375 -18.234375 L 12.25 -18.234375 L 10.28125 -6.96875 L 29.25 -6.96875 L 28.03125 0 L 0.609375 0 L 7.921875 -42.078125 L 35.28125 -42.078125 L 34.046875 -35.0625 L 15.171875 -35.0625 L 13.40625 -25.03125 L 29.59375 -25.03125 Z M 28.375 -18.234375 "/></g></g></g><g fill="#182b5c" fill-opacity="1"><g transform="translate(157.631134, 206.999986)"><g><path d="M 34.90625 -14.046875 C 34.582031 -11.140625 33.59375 -8.5625 31.9375 -6.3125 C 30.28125 -4.070312 28.117188 -2.347656 25.453125 -1.140625 C 22.796875 0.0664062 19.925781 0.640625 16.84375 0.578125 C 14.070312 0.515625 11.65625 -0.125 9.59375 -1.34375 C 7.53125 -2.5625 5.90625 -4.332031 4.71875 -6.65625 C 3.539062 -8.976562 2.875 -11.65625 2.71875 -14.6875 C 2.582031 -17.050781 2.828125 -19.992188 3.453125 -23.515625 C 4.078125 -27.046875 5.191406 -30.175781 6.796875 -32.90625 C 8.410156 -35.644531 10.328125 -37.816406 12.546875 -39.421875 C 15.660156 -41.648438 19.222656 -42.726562 23.234375 -42.65625 C 27.585938 -42.582031 31.039062 -41.238281 33.59375 -38.625 C 36.144531 -36.007812 37.546875 -32.382812 37.796875 -27.75 L 29.359375 -27.765625 C 29.359375 -30.429688 28.828125 -32.378906 27.765625 -33.609375 C 26.710938 -34.835938 25.066406 -35.492188 22.828125 -35.578125 C 19.941406 -35.671875 17.566406 -34.640625 15.703125 -32.484375 C 13.847656 -30.328125 12.601562 -27.175781 11.96875 -23.03125 C 11.351562 -19.007812 11.082031 -15.992188 11.15625 -13.984375 C 11.25 -11.441406 11.816406 -9.566406 12.859375 -8.359375 C 13.898438 -7.160156 15.351562 -6.53125 17.21875 -6.46875 C 19.800781 -6.375 21.867188 -6.984375 23.421875 -8.296875 C 24.972656 -9.617188 26 -11.515625 26.5 -13.984375 Z M 34.90625 -14.046875 "/></g></g></g><g fill="#182b5c" fill-opacity="1"><g transform="translate(192.703233, 206.999986)"><g><path d="M 9.625 0 L 1.15625 0 L 8.4375 -42.078125 L 16.90625 -42.078125 Z M 9.625 0 "/></g></g></g><g fill="#289db9" fill-opacity="1"><g transform="translate(204.896357, 207.001482)"><g><path d="M 0.609375 0 L 7.921875 -42.078125 L 21.046875 -42.046875 C 25.910156 -42.023438 29.566406 -41.03125 32.015625 -39.0625 C 34.460938 -37.101562 35.570312 -34.34375 35.34375 -30.78125 C 35.070312 -26.519531 32.613281 -23.40625 27.96875 -21.4375 C 29.644531 -20.863281 30.945312 -19.78125 31.875 -18.1875 C 32.800781 -16.601562 33.195312 -14.734375 33.0625 -12.578125 C 32.789062 -8.609375 31.234375 -5.519531 28.390625 -3.3125 C 25.546875 -1.101562 21.671875 0 16.765625 0 Z M 12.28125 -18.328125 L 10.28125 -6.96875 L 16.96875 -6.9375 C 19.039062 -6.9375 20.78125 -7.453125 22.1875 -8.484375 C 23.601562 -9.515625 24.441406 -10.90625 24.703125 -12.65625 C 24.972656 -14.394531 24.738281 -15.75 24 -16.71875 C 23.257812 -17.6875 22.015625 -18.210938 20.265625 -18.296875 Z M 13.328125 -24.453125 L 19.078125 -24.390625 C 21.210938 -24.429688 22.957031 -24.929688 24.3125 -25.890625 C 25.675781 -26.859375 26.492188 -28.195312 26.765625 -29.90625 C 27.242188 -33.300781 25.460938 -35.007812 21.421875 -35.03125 L 15.171875 -35.0625 Z M 13.328125 -24.453125 "/></g></g></g><g fill="#289db9" fill-opacity="1"><g transform="translate(239.04378, 207.001482)"><g><path d="M 28.375 -18.234375 L 12.25 -18.234375 L 10.28125 -6.96875 L 29.25 -6.96875 L 28.03125 0 L 0.609375 0 L 7.921875 -42.078125 L 35.28125 -42.078125 L 34.046875 -35.0625 L 15.171875 -35.0625 L 13.40625 -25.03125 L 29.59375 -25.03125 Z M 28.375 -18.234375 "/></g></g></g><g fill="#289db9" fill-opacity="1"><g transform="translate(268.827857, 207.001482)"><g><path d="M 10.28125 -6.96875 L 28.15625 -6.96875 L 26.9375 0 L 0.609375 0 L 7.921875 -42.078125 L 16.390625 -42.078125 Z M 10.28125 -6.96875 "/></g></g></g><g fill="#289db9" fill-opacity="1"><g transform="translate(297.427184, 207.001482)"><g><path d="M 9.625 0 L 1.15625 0 L 8.4375 -42.078125 L 16.90625 -42.078125 Z M 9.625 0 "/></g></g></g><g fill="#289db9" fill-opacity="1"><g transform="translate(311.665036, 207.001482)"><g><path d="M 17.515625 0.578125 C 14.722656 0.515625 12.257812 -0.144531 10.125 -1.40625 C 8 -2.664062 6.3125 -4.484375 5.0625 -6.859375 C 3.820312 -9.242188 3.109375 -11.976562 2.921875 -15.0625 C 2.703125 -18.21875 3.035156 -21.585938 3.921875 -25.171875 C 4.816406 -28.753906 6.242188 -31.90625 8.203125 -34.625 C 10.171875 -37.34375 12.476562 -39.375 15.125 -40.71875 C 17.78125 -42.070312 20.648438 -42.71875 23.734375 -42.65625 C 26.554688 -42.59375 29.023438 -41.921875 31.140625 -40.640625 C 33.265625 -39.359375 34.929688 -37.519531 36.140625 -35.125 C 37.359375 -32.726562 38.054688 -30.007812 38.234375 -26.96875 C 38.429688 -23.570312 38.066406 -20.082031 37.140625 -16.5 C 36.210938 -12.914062 34.773438 -9.8125 32.828125 -7.1875 C 30.878906 -4.570312 28.597656 -2.609375 25.984375 -1.296875 C 23.378906 0.015625 20.554688 0.640625 17.515625 0.578125 Z M 29.5 -22.203125 L 29.734375 -24.9375 C 29.929688 -28.363281 29.472656 -30.960938 28.359375 -32.734375 C 27.253906 -34.515625 25.578125 -35.441406 23.328125 -35.515625 C 19.796875 -35.628906 16.992188 -34.066406 14.921875 -30.828125 C 12.847656 -27.597656 11.679688 -23.070312 11.421875 -17.25 C 11.222656 -13.84375 11.671875 -11.21875 12.765625 -9.375 C 13.867188 -7.539062 15.578125 -6.582031 17.890625 -6.5 C 20.910156 -6.363281 23.410156 -7.539062 25.390625 -10.03125 C 27.378906 -12.53125 28.6875 -16.066406 29.3125 -20.640625 Z M 29.5 -22.203125 "/></g></g></g><g fill="#289db9" fill-opacity="1"><g transform="translate(140.203618, 230.684589)"><g><path d="M 6.578125 0.25 C 5.460938 0.25 4.453125 0.0390625 3.546875 -0.375 C 2.648438 -0.789062 1.941406 -1.414062 1.421875 -2.25 C 0.910156 -3.09375 0.65625 -4.148438 0.65625 -5.421875 C 0.65625 -6.628906 0.835938 -7.75 1.203125 -8.78125 C 1.566406 -9.8125 2.085938 -10.707031 2.765625 -11.46875 C 3.453125 -12.226562 4.28125 -12.820312 5.25 -13.25 C 6.226562 -13.675781 7.316406 -13.890625 8.515625 -13.890625 C 9.222656 -13.890625 9.925781 -13.789062 10.625 -13.59375 C 11.332031 -13.40625 11.957031 -13.078125 12.5 -12.609375 C 13.050781 -12.148438 13.457031 -11.523438 13.71875 -10.734375 L 10.734375 -9.734375 C 10.484375 -10.304688 10.132812 -10.695312 9.6875 -10.90625 C 9.25 -11.125 8.753906 -11.234375 8.203125 -11.234375 C 7.554688 -11.234375 6.976562 -11.082031 6.46875 -10.78125 C 5.96875 -10.476562 5.539062 -10.066406 5.1875 -9.546875 C 4.832031 -9.023438 4.5625 -8.441406 4.375 -7.796875 C 4.1875 -7.148438 4.09375 -6.476562 4.09375 -5.78125 C 4.09375 -4.675781 4.351562 -3.847656 4.875 -3.296875 C 5.394531 -2.742188 6.070312 -2.460938 6.90625 -2.453125 C 7.425781 -2.453125 7.929688 -2.5625 8.421875 -2.78125 C 8.910156 -3 9.375 -3.394531 9.8125 -3.96875 L 12.59375 -2.875 C 11.96875 -1.914062 11.15625 -1.15625 10.15625 -0.59375 C 9.164062 -0.03125 7.972656 0.25 6.578125 0.25 Z M 6.578125 0.25 "/></g></g></g><g fill="#289db9" fill-opacity="1"><g transform="translate(153.958076, 230.684589)"><g><path d="M -0.265625 0 L 0.265625 -2.53125 L 2.140625 -2.53125 L 3.984375 -11.125 L 2.109375 -11.125 L 2.640625 -13.65625 L 9.6875 -13.65625 L 9.140625 -11.125 L 7.25 -11.125 L 5.453125 -2.53125 L 7.3125 -2.53125 L 6.765625 0 Z M -0.265625 0 "/></g></g></g><g fill="#289db9" fill-opacity="1"><g transform="translate(163.3389, 230.684589)"><g><path d="M 6.25 0.25 C 4.769531 0.25 3.5 -0.0546875 2.4375 -0.671875 C 1.375 -1.285156 0.628906 -2.128906 0.203125 -3.203125 L 3.375 -4.265625 C 3.476562 -3.816406 3.6875 -3.445312 4 -3.15625 C 4.3125 -2.875 4.679688 -2.664062 5.109375 -2.53125 C 5.546875 -2.394531 5.972656 -2.328125 6.390625 -2.328125 C 6.992188 -2.328125 7.523438 -2.441406 7.984375 -2.671875 C 8.441406 -2.910156 8.671875 -3.238281 8.671875 -3.65625 C 8.671875 -4 8.535156 -4.285156 8.265625 -4.515625 C 8.003906 -4.742188 7.648438 -4.941406 7.203125 -5.109375 C 6.765625 -5.273438 6.28125 -5.4375 5.75 -5.59375 C 5.21875 -5.757812 4.6875 -5.941406 4.15625 -6.140625 C 3.632812 -6.347656 3.148438 -6.601562 2.703125 -6.90625 C 2.265625 -7.21875 1.910156 -7.597656 1.640625 -8.046875 C 1.378906 -8.503906 1.25 -9.054688 1.25 -9.703125 C 1.25 -10.441406 1.40625 -11.070312 1.71875 -11.59375 C 2.039062 -12.125 2.472656 -12.554688 3.015625 -12.890625 C 3.554688 -13.234375 4.164062 -13.484375 4.84375 -13.640625 C 5.519531 -13.804688 6.226562 -13.890625 6.96875 -13.890625 C 7.644531 -13.890625 8.320312 -13.796875 9 -13.609375 C 9.6875 -13.429688 10.328125 -13.125 10.921875 -12.6875 C 11.515625 -12.25 12.003906 -11.664062 12.390625 -10.9375 L 9.21875 -9.875 C 9.039062 -10.351562 8.707031 -10.703125 8.21875 -10.921875 C 7.726562 -11.148438 7.226562 -11.265625 6.71875 -11.265625 C 6.03125 -11.265625 5.5 -11.148438 5.125 -10.921875 C 4.757812 -10.703125 4.578125 -10.414062 4.578125 -10.0625 C 4.578125 -9.6875 4.707031 -9.382812 4.96875 -9.15625 C 5.238281 -8.9375 5.59375 -8.742188 6.03125 -8.578125 C 6.476562 -8.421875 6.96875 -8.269531 7.5 -8.125 C 8.03125 -7.976562 8.5625 -7.8125 9.09375 -7.625 C 9.625 -7.445312 10.109375 -7.210938 10.546875 -6.921875 C 10.992188 -6.640625 11.347656 -6.28125 11.609375 -5.84375 C 11.878906 -5.40625 12.015625 -4.859375 12.015625 -4.203125 C 12.015625 -3.222656 11.738281 -2.398438 11.1875 -1.734375 C 10.644531 -1.078125 9.9375 -0.582031 9.0625 -0.25 C 8.1875 0.0820312 7.25 0.25 6.25 0.25 Z M 6.25 0.25 "/></g></g></g><g fill="#289db9" fill-opacity="1"><g transform="translate(176.459802, 230.684589)"><g/></g></g><g fill="#289db9" fill-opacity="1"><g transform="translate(182.999814, 230.684589)"><g><path d="M 0.203125 -3.765625 L 0.78125 -6.390625 L 7.4375 -6.390625 L 6.859375 -3.765625 Z M 0.203125 -3.765625 "/></g></g></g><g fill="#182b5c" fill-opacity="1"><g transform="translate(199.226197, 230.187318)"><g><path d="M 5.4375 0.25 C 4.207031 0.25 3.234375 0.0703125 2.515625 -0.28125 C 1.804688 -0.632812 1.296875 -1.117188 0.984375 -1.734375 C 0.679688 -2.347656 0.53125 -3.046875 0.53125 -3.828125 C 0.53125 -4.160156 0.550781 -4.503906 0.59375 -4.859375 C 0.644531 -5.210938 0.710938 -5.582031 0.796875 -5.96875 L 2.453125 -13.65625 L 5.75 -13.65625 L 4.046875 -5.703125 C 3.992188 -5.410156 3.945312 -5.140625 3.90625 -4.890625 C 3.863281 -4.640625 3.84375 -4.398438 3.84375 -4.171875 C 3.84375 -3.628906 3.992188 -3.195312 4.296875 -2.875 C 4.609375 -2.550781 5.179688 -2.390625 6.015625 -2.390625 C 6.753906 -2.390625 7.335938 -2.523438 7.765625 -2.796875 C 8.203125 -3.066406 8.539062 -3.453125 8.78125 -3.953125 C 9.019531 -4.453125 9.207031 -5.035156 9.34375 -5.703125 L 11.03125 -13.65625 L 14.328125 -13.65625 L 12.6875 -5.96875 C 12.414062 -4.6875 12.070312 -3.640625 11.65625 -2.828125 C 11.238281 -2.015625 10.738281 -1.382812 10.15625 -0.9375 C 9.582031 -0.488281 8.90625 -0.175781 8.125 0 C 7.34375 0.164062 6.445312 0.25 5.4375 0.25 Z M 5.4375 0.25 "/></g></g></g><g fill="#182b5c" fill-opacity="1"><g transform="translate(213.10329, 230.187318)"><g><path d="M -0.46875 0 L 2.4375 -13.65625 L 6.5 -13.65625 L 9.765625 -3.734375 L 11.890625 -13.65625 L 15.0625 -13.65625 L 12.15625 0 L 8.09375 0 L 4.828125 -9.90625 L 2.71875 0 Z M -0.46875 0 "/></g></g></g><g fill="#182b5c" fill-opacity="1"><g transform="translate(227.716124, 230.187318)"><g><path d="M -0.46875 0 L 2.4375 -13.65625 L 5.703125 -13.65625 L 3.4375 -2.84375 L 9.96875 -2.84375 L 9.359375 0 Z M -0.46875 0 "/></g></g></g></svg>